<svg xmlns="http://www.w3.org/2000/svg" width="24" height="24" viewBox="0 0 24 24" fill="none" stroke="currentColor" stroke-width="2" stroke-linecap="round" stroke-linejoin="round">
  <path d="M14.5 2l-1 2.5-2.5 1 2.5 1 1 2.5 1-2.5 2.5-1-2.5-1z"></path>
  <path d="M7 12l-1 2-2 1 2 1 1 2 1-2 2-1-2-1z"></path>
  <path d="M19 17l-.5 1.5-1.5.5 1.5.5.5 1.5.5-1.5 1.5-.5-1.5-.5z"></path>
  <line x1="12" y1="8" x2="12" y2="22"></line>
  <line x1="8" y1="12" x2="16" y2="20"></line>
  <line x1="16" y1="12" x2="8" y2="20"></line>
</svg>
